<mxfile host="65bd71144e">
    <diagram id="DM196B6BEvVyDEHHU0X5" name="Page-1">
        <mxGraphModel dx="919" dy="792" grid="1" gridSize="10" guides="1" tooltips="1" connect="1" arrows="1" fold="1" page="0" pageScale="1" pageWidth="1100" pageHeight="1700" background="none" math="0" shadow="0">
            <root>
                <mxCell id="0"/>
                <mxCell id="1" parent="0"/>
                <mxCell id="8" value="" style="pointerEvents=1;shadow=1;dashed=0;html=1;strokeColor=#FF8000;labelPosition=center;verticalLabelPosition=bottom;verticalAlign=top;outlineConnect=0;align=center;shape=mxgraph.office.concepts.node_generic;fillColor=#FFFFFF;rounded=0;glass=0;sketchStyle=rough;zigzagOffset=-1;dashGap=-1;sketch=1;" vertex="1" parent="1">
                    <mxGeometry x="430" y="280" width="46" height="52" as="geometry"/>
                </mxCell>
                <mxCell id="9" value="" style="whiteSpace=wrap;html=1;aspect=fixed;rounded=0;shadow=0;glass=0;sketchStyle=rough;strokeColor=none;fillColor=#FFFFFF;gradientColor=none;dashGap=53;zigzagOffset=27;dashOffset=15;direction=west;strokeOpacity=62;fillOpacity=86;absoluteArcSize=0;sketch=1;fillStyle=hachure;perimeter=rectanglePerimeter;" vertex="1" parent="1">
                    <mxGeometry x="180" y="102" width="488" height="488" as="geometry"/>
                </mxCell>
            </root>
        </mxGraphModel>
    </diagram>
</mxfile>